<?xml version="1.0" encoding="UTF-8" standalone="no"?>
<svg xmlns="http://www.w3.org/2000/svg" height="43px" width="144px" version="1.1" xmlns:xlink="http://www.w3.org/1999/xlink" viewBox="0 0 144 43">
 <title>apple-store</title>
 <desc>Created with Sketch.</desc>
 <g id="Page-1" fill-rule="evenodd" fill="none">
  <g id="Joya-desktop-–-Home-014" transform="translate(-583 -1302)">
   <g id="marco-polo" transform="translate(0 800)">
    <g id="content" transform="translate(577 255)">
     <g id="badges" transform="translate(6 247)">
      <g id="apple-store">
       <rect id="bg" rx="4.32" height="43" width="144" y="0" x="0" fill="#000"/>
       <g id="apple-logo" fill="#fff" transform="translate(12.992 6.45)">
        <path id="Shape" d="m18.907 14.818c-0.032-3.465 2.857-5.1505 2.989-5.229-1.636-2.3682-4.172-2.6918-5.063-2.7176-2.129-0.2225-4.195 1.2653-5.28 1.2653-1.106 0-2.7769-1.2438-4.5774-1.2073-2.3169 0.0355-4.4844 1.3674-5.6732 3.4356-2.4533 4.217-0.62359 10.415 1.7269 13.824 1.1758 1.669 2.5497 3.533 4.348 3.468 1.7593-0.073 2.4165-1.114 4.5397-1.114 2.104 0 2.721 1.114 4.555 1.072 1.888-0.031 3.077-1.677 4.211-3.362 1.359-1.913 1.905-3.798 1.926-3.895-0.044-0.015-3.667-1.387-3.702-5.54z"/>
        <path id="Shape" d="m15.442 4.629c0.946-1.175 1.594-2.7736 1.414-4.3957-1.37 0.06018-3.082 0.9406-4.069 2.0898-0.872 1.0126-1.652 2.6724-1.45 4.2333 1.538 0.114 3.118-0.7708 4.105-1.9274z"/>
       </g>
       <g id="app-store" fill="#fff" transform="translate(44.752 19.35)">
        <path id="Shape" d="m86.782 8.8709c0 0.4107-0.027 0.7568-0.084 1.0395h-6.925c0.027 1.0196 0.362 1.7986 1.005 2.3356 0.583 0.481 1.338 0.722 2.265 0.722 1.025 0 1.96-0.163 2.802-0.488l0.361 1.591c-0.983 0.425-2.143 0.637-3.483 0.637-1.611 0-2.875-0.471-3.796-1.411-0.918-0.941-1.378-2.204-1.378-3.7886 0-1.5556 0.428-2.8509 1.284-3.884 0.897-1.103 2.108-1.6544 3.633-1.6544 1.497 0 2.631 0.5514 3.4 1.6544 0.61 0.8761 0.916 1.9597 0.916 3.2465zm-2.201-0.5945c0.015-0.6794-0.135-1.2663-0.448-1.7619-0.4-0.6375-1.013-0.9557-1.84-0.9557-0.754 0-1.368 0.3107-1.837 0.9342-0.384 0.4956-0.613 1.09-0.683 1.7824h4.808v0.001z"/>
        <path id="Shape" d="m76.459 6.2167c-0.228-0.0419-0.472-0.0634-0.728-0.0634-0.812 0-1.439 0.3042-1.881 0.9137-0.385 0.5376-0.577 1.217-0.577 2.0372v5.4128h-2.307l0.021-7.0672c0-1.189-0.029-2.2715-0.086-3.2476h2.01l0.085 1.9737h0.063c0.244-0.6783 0.628-1.2245 1.155-1.634 0.514-0.3687 1.069-0.5526 1.668-0.5526 0.213 0 0.406 0.0151 0.577 0.0419v2.1855z"/>
        <path id="Shape" d="m68.956 9.274c0 1.586-0.457 2.887-1.368 3.906-0.956 1.048-2.225 1.57-3.807 1.57-1.524 0-2.738-0.502-3.643-1.506s-1.358-2.271-1.358-3.799c0-1.5986 0.466-2.9079 1.4-3.926 0.932-1.019 2.19-1.5286 3.772-1.5286 1.524 0 2.751 0.502 3.677 1.5072 0.885 0.975 1.327 2.2338 1.327 3.7764zm-2.395 0.0742c0-0.9514-0.204-1.7673-0.619-2.4478-0.484-0.8234-1.176-1.2341-2.072-1.2341-0.928 0-1.633 0.4117-2.117 1.2341-0.415 0.6816-0.619 1.5104-0.619 2.4908 0 0.9518 0.204 1.7668 0.619 2.4468 0.499 0.823 1.196 1.234 2.096 1.234 0.881 0 1.573-0.419 2.072-1.256 0.426-0.693 0.64-1.518 0.64-2.4678z"/>
        <path id="Shape" d="m57.477 5.9211h-2.545v5.0089c0 1.273 0.449 1.91 1.347 1.91 0.413 0 0.755-0.036 1.025-0.107l0.064 1.741c-0.454 0.169-1.053 0.254-1.795 0.254-0.911 0-1.624-0.277-2.138-0.828-0.512-0.553-0.77-1.479-0.77-2.781v-5.2h-1.515v-1.72h1.515v-1.8888l2.267-0.6794v2.5682h2.545v1.7221z"/>
        <path id="Shape" d="m49.845 10.505c0 1.217-0.426 2.207-1.28 2.971-0.938 0.835-2.245 1.253-3.924 1.253-1.551 0-2.794-0.297-3.735-0.892l0.535-1.91c1.014 0.609 2.126 0.914 3.337 0.914 0.869 0 1.546-0.196 2.032-0.585 0.484-0.389 0.726-0.912 0.726-1.563 0-0.58-0.2-1.0696-0.599-1.4663-0.397-0.3967-1.061-0.7654-1.988-1.1061-2.523-0.9342-3.783-2.3027-3.783-4.1022 0-1.1761 0.442-2.1404 1.327-2.8907 0.881-0.75145 2.057-1.1266 3.527-1.1266 1.311-0.000025 2.4 0.2268 3.269 0.67938l-0.577 1.8683c-0.812-0.4386-1.73-0.6579-2.757-0.6579-0.812 0-1.447 0.1989-1.901 0.5945-0.385 0.3537-0.577 0.7848-0.577 1.2954 0 0.5654 0.219 1.033 0.661 1.4007 0.385 0.3397 1.083 0.7073 2.096 1.104 1.24 0.4956 2.15 1.075 2.736 1.7394 0.584 0.6622 0.875 1.491 0.875 2.4801z"/>
        <path id="Shape" d="m36.485 9.2321c0 1.7539-0.478 3.1409-1.434 4.1589-0.854 0.907-1.916 1.359-3.184 1.359-1.368 0-2.351-0.488-2.949-1.464h-0.043v5.434h-2.309v-11.123c0-1.1029-0.029-2.2349-0.085-3.3959h2.03l0.129 1.6351h0.043c0.769-1.232 1.937-1.8469 3.506-1.8469 1.224 0 2.247 0.4805 3.068 1.4427 0.817 0.9632 1.228 2.2295 1.228 3.8001zm-2.352 0.0839c0-1.0041-0.228-1.8318-0.685-2.4833-0.499-0.6794-1.167-1.0191-2.008-1.0191-0.571 0-1.087 0.1892-1.551 0.5622-0.463 0.3763-0.765 0.8676-0.907 1.476-0.07 0.2838-0.107 0.516-0.107 0.6988v1.7204c0 0.75 0.231 1.383 0.693 1.9 0.463 0.516 1.065 0.775 1.808 0.775 0.869 0 1.546-0.333 2.03-0.997 0.485-0.666 0.727-1.543 0.727-2.633z"/>
        <path id="Shape" d="m24.535 9.2321c0 1.7539-0.477 3.1409-1.432 4.1589-0.855 0.907-1.917 1.359-3.185 1.359-1.369 0-2.352-0.488-2.95-1.464h-0.044v5.434h-2.308v-11.123c0-1.1029-0.029-2.2349-0.086-3.3959h2.03l0.129 1.6351h0.044c0.769-1.232 1.938-1.8469 3.505-1.8469 1.226 0 2.249 0.4805 3.067 1.4427 0.821 0.9632 1.23 2.2295 1.23 3.8001zm-2.351 0.0839c0-1.0041-0.228-1.8318-0.684-2.4833-0.5-0.6794-1.17-1.0191-2.01-1.0191-0.569 0-1.087 0.1892-1.549 0.5622-0.464 0.3763-0.767 0.8676-0.908 1.476-0.072 0.2838-0.108 0.516-0.108 0.6988v1.7204c0 0.75 0.232 1.383 0.695 1.9 0.464 0.517 1.066 0.775 1.806 0.775 0.87 0 1.546-0.333 2.03-0.997 0.485-0.666 0.728-1.543 0.728-2.633z"/>
        <path id="Shape" d="m12.608 14.517h-2.459l-1.3469-4.202h-4.6815l-1.2829 4.202h-2.3938l4.6381-14.306 2.8648-0.0003 4.6612 14.306zm-4.2119-5.9654l-1.218-3.7356c-0.1289-0.3816-0.3703-1.2803-0.7265-2.695h-0.0433c-0.1418 0.6084-0.3703 1.5071-0.6842 2.695l-1.1964 3.7356h3.8684z"/>
       </g>
       <g id="download-on-the" fill="#fff" transform="translate(46.555 6.45)">
        <path id="Shape" d="m83.952 5.217c0 0.2021-0.015 0.3719-0.042 0.5106h-3.403c0.015 0.501 0.178 0.8826 0.493 1.147 0.288 0.2365 0.659 0.3548 1.114 0.3548 0.503 0 0.962-0.0796 1.376-0.2398l0.177 0.7826c-0.484 0.2086-1.053 0.3129-1.712 0.3129-0.791 0-1.413-0.2311-1.864-0.6934-0.452-0.4623-0.676-1.0825-0.676-1.8608 0-0.7643 0.209-1.4007 0.63-1.9081 0.439-0.5418 1.034-0.8128 1.784-0.8128 0.734 0 1.292 0.271 1.668 0.8128 0.305 0.43 0.455 0.9621 0.455 1.5942zm-1.083-0.2914c0.009-0.3343-0.066-0.6224-0.219-0.8653-0.197-0.3129-0.497-0.4698-0.903-0.4698-0.371 0-0.673 0.1527-0.903 0.459-0.189 0.2441-0.3 0.5354-0.337 0.8761h2.362z"/>
        <path id="Shape" d="m77.756 7.9905h-1.136v-2.881c0-0.9084-0.342-1.3631-1.027-1.3631-0.526 0-0.886 0.2634-1.083 0.7901-0.033 0.1107-0.053 0.2462-0.053 0.4053v3.0476h-1.133v-7.3917h1.133v3.0541h0.022c0.357-0.5558 0.869-0.8332 1.533-0.8332 0.47 0 0.858 0.1527 1.167 0.4591 0.384 0.3816 0.577 0.9492 0.577 1.6995v3.0133z"/>
        <path id="Shape" d="m71.749 3.7668h-1.249v2.4618c0 0.6256 0.222 0.9384 0.661 0.9384 0.204 0 0.373-0.0172 0.506-0.0526l0.029 0.8546c-0.224 0.0838-0.518 0.1258-0.881 0.1258-0.448 0-0.797-0.1355-1.049-0.4064-0.253-0.2709-0.379-0.7267-0.379-1.3663v-2.5553h-0.746v-0.8439h0.746v-0.9288l1.112-0.3332v1.2609h1.249v0.845h0.001z"/>
        <path id="Shape" d="m64.113 7.9905h-1.133v-2.9025c0-0.8944-0.342-1.3416-1.03-1.3416-0.337 0-0.608 0.1225-0.818 0.3687s-0.315 0.5364-0.315 0.8686v3.0057h-1.136v-3.6184c0-0.4451-0.013-0.9278-0.04-1.4502h0.996l0.053 0.7922h0.031c0.134-0.2461 0.331-0.4493 0.588-0.6116 0.309-0.1892 0.652-0.2849 1.03-0.2849 0.475 0 0.871 0.1527 1.186 0.459 0.393 0.3752 0.588 0.9353 0.588 1.6792v3.0358z"/>
        <path id="Shape" d="m58.013 5.4148c0 0.7794-0.225 1.4179-0.673 1.9188-0.47 0.515-1.091 0.7719-1.87 0.7719-0.748 0-1.344-0.2462-1.79-0.7407-0.444-0.4934-0.666-1.1158-0.666-1.8662 0-0.7847 0.228-1.4286 0.687-1.9285s1.076-0.7504 1.855-0.7504c0.748 0 1.351 0.2462 1.806 0.7396 0.433 0.4795 0.651 1.0987 0.651 1.8555zm-1.176 0.0365c0-0.4676-0.102-0.8686-0.305-1.2029-0.239-0.4042-0.577-0.6063-1.018-0.6063-0.455 0-0.801 0.2021-1.041 0.6063-0.203 0.3343-0.304 0.7418-0.304 1.2234 0 0.4676 0.102 0.8686 0.304 1.2029 0.246 0.4042 0.588 0.6063 1.03 0.6063 0.433 0 0.774-0.2054 1.019-0.6171 0.209-0.3407 0.315-0.7449 0.315-1.2126z"/>
        <path id="Shape" d="m48.309 7.9905h-1.007l-0.053-0.8138h-0.032c-0.321 0.6192-0.869 0.9288-1.639 0.9288-0.615 0-1.127-0.2397-1.533-0.7192-0.406-0.4794-0.608-1.1019-0.608-1.8662 0-0.8202 0.219-1.4845 0.661-1.9919 0.428-0.473 0.952-0.7096 1.575-0.7096 0.686 0 1.165 0.229 1.438 0.688h0.022v-2.9089h1.136v6.0275c0 0.4934 0.012 0.9482 0.04 1.3653zm-1.176-2.1371v-0.845c0-0.1462-0.011-0.2644-0.032-0.3547-0.063-0.2709-0.201-0.4988-0.41-0.6827-0.211-0.1838-0.465-0.2762-0.759-0.2762-0.423 0-0.755 0.1666-0.998 0.5009-0.242 0.3343-0.364 0.7611-0.364 1.2825 0 0.501 0.116 0.9073 0.349 1.2201 0.245 0.3333 0.577 0.4999 0.991 0.4999 0.373 0 0.671-0.1387 0.897-0.4171 0.219-0.2569 0.326-0.5665 0.326-0.9277z"/>
        <path id="Shape" d="m41.861 7.9905h-1.019l-0.084-0.5837h-0.031c-0.349 0.4654-0.846 0.6987-1.491 0.6987-0.482 0-0.872-0.1537-1.165-0.459-0.266-0.2774-0.4-0.6225-0.4-1.032 0-0.6192 0.26-1.0911 0.783-1.4179 0.522-0.3268 1.256-0.487 2.201-0.4795v-0.0946c0-0.6676-0.353-1.0008-1.06-1.0008-0.503 0-0.947 0.1257-1.33 0.3751l-0.231-0.7396c0.474-0.2913 1.06-0.4375 1.751-0.4375 1.334 0 2.003 0.6988 2.003 2.0963v1.8662c0 0.5063 0.025 0.9094 0.073 1.2083zm-1.178-1.7415v-0.7816c-1.251-0.0214-1.877 0.3193-1.877 1.0213 0 0.2645 0.071 0.4623 0.218 0.5945 0.146 0.1322 0.332 0.1978 0.554 0.1978 0.249 0 0.482-0.0785 0.694-0.2344 0.213-0.1569 0.344-0.3558 0.393-0.5998 0.012-0.0548 0.018-0.1215 0.018-0.1978z"/>
        <path id="Shape" d="m36.37 5.4148c0 0.7794-0.224 1.4179-0.672 1.9188-0.47 0.515-1.094 0.7719-1.87 0.7719-0.75 0-1.347-0.2462-1.791-0.7407-0.444-0.4934-0.666-1.1158-0.666-1.8662 0-0.7847 0.229-1.4286 0.688-1.9285s1.076-0.7504 1.852-0.7504c0.751 0 1.351 0.2462 1.808 0.7396 0.433 0.4795 0.651 1.0987 0.651 1.8555zm-1.178 0.0365c0-0.4676-0.102-0.8686-0.304-1.2029-0.237-0.4042-0.577-0.6063-1.017-0.6063-0.457 0-0.803 0.2021-1.04 0.6063-0.204 0.3343-0.304 0.7418-0.304 1.2234 0 0.4676 0.101 0.8686 0.304 1.2029 0.246 0.4042 0.588 0.6063 1.029 0.6063 0.433 0 0.772-0.2054 1.017-0.6171 0.211-0.3407 0.315-0.7449 0.315-1.2126z"/>
        <polygon id="Shape" points="29.69 7.9905 28.556 7.9905 28.556 0.5977 29.69 0.5977"/>
        <path id="Shape" d="m26.561 7.9905h-1.135v-2.9025c0-0.8944-0.342-1.3416-1.028-1.3416-0.337 0-0.609 0.1225-0.82 0.3687-0.209 0.2462-0.315 0.5364-0.315 0.8686v3.0057h-1.134v-3.6184c0-0.4451-0.014-0.9278-0.042-1.4502h0.998l0.053 0.7922h0.031c0.132-0.2461 0.329-0.4493 0.588-0.6116 0.307-0.1892 0.652-0.2849 1.028-0.2849 0.477 0 0.873 0.1527 1.188 0.459 0.392 0.3752 0.588 0.9353 0.588 1.6792v3.0358z"/>
        <path id="Shape" d="m20.679 2.9229l-1.597 5.0676h-1.039l-0.662-2.2005c-0.168-0.5494-0.304-1.0955-0.41-1.6373h-0.021c-0.098 0.5569-0.235 1.1019-0.41 1.6373l-0.703 2.2005h-1.051l-1.502-5.0676h1.166l0.577 2.4091c0.14 0.5698 0.255 1.1126 0.347 1.6265h0.02c0.085-0.4236 0.225-0.9632 0.422-1.6157l0.724-2.4188h0.924l0.694 2.3672c0.168 0.5772 0.305 1.133 0.41 1.6684h0.031c0.077-0.5214 0.193-1.0772 0.347-1.6684l0.619-2.3672h1.114v-0.0011z"/>
        <path id="Shape" d="m12.173 5.4148c0 0.7794-0.224 1.4179-0.672 1.9188-0.47 0.515-1.092 0.7719-1.8696 0.7719-0.7492 0-1.3458-0.2462-1.7908-0.7407-0.4438-0.4934-0.6658-1.1158-0.6658-1.8662 0-0.7847 0.2284-1.4286 0.6875-1.9285 0.459-0.4999 1.0762-0.7504 1.8535-0.7504 0.7492 0 1.3512 0.2462 1.8072 0.7396 0.433 0.4795 0.65 1.0987 0.65 1.8555zm-1.176 0.0365c0-0.4676-0.102-0.8686-0.305-1.2029-0.238-0.4042-0.577-0.6063-1.0173-0.6063-0.4558 0-0.8023 0.2021-1.0405 0.6063-0.2035 0.3343-0.3042 0.7418-0.3042 1.2234 0 0.4676 0.1018 0.8686 0.3042 1.2029 0.2458 0.4042 0.5879 0.6063 1.0297 0.6063 0.4331 0 0.7731-0.2054 1.0181-0.6171 0.21-0.3407 0.315-0.7449 0.315-1.2126z"/>
        <path id="Shape" d="m5.8301 4.3097c0 1.2653-0.3821 2.2177-1.1454 2.8573-0.707 0.5902-1.7117 0.8858-3.0131 0.8858-0.6453 0-1.1974-0.0279-1.6597-0.0838l-0.000017-6.9134c0.60305-0.0967 1.2526-0.14615 1.9542-0.14615 1.2396 0 2.174 0.26765 2.8041 0.80305 0.7059 0.6052 1.0599 1.4706 1.0599 2.5972zm-1.1963 0.0311c0-0.8202-0.2187-1.449-0.6561-1.8876-0.4374-0.4376-1.0762-0.6569-1.9174-0.6569-0.3573 0-0.6615 0.0237-0.9138 0.0731v5.2557c0.1397 0.0215 0.3952 0.0312 0.7665 0.0312 0.8683 0 1.5385-0.2397 2.0106-0.7192 0.472-0.4795 0.7102-1.1782 0.7102-2.0963z"/>
       </g>
      </g>
     </g>
    </g>
   </g>
  </g>
 </g>
</svg>
