<?xml version="1.0" encoding="UTF-8" standalone="no"?>
<svg width="144px" height="43px" viewBox="0 0 144 43" version="1.1" xmlns="http://www.w3.org/2000/svg" xmlns:xlink="http://www.w3.org/1999/xlink">
    <!-- Generator: Sketch 39.1 (31720) - http://www.bohemiancoding.com/sketch -->
    <title>google-play</title>
    <desc>Created with Sketch.</desc>
    <defs>
        <linearGradient x1="91.6829457%" y1="4.6768%" x2="-38.4131783%" y2="71.8064%" id="linearGradient-1">
            <stop stop-color="#00A1FF" offset="0%"></stop>
            <stop stop-color="#00BEFF" offset="26.01%"></stop>
            <stop stop-color="#00D2FF" offset="51.22%"></stop>
            <stop stop-color="#00DFFF" offset="76.04%"></stop>
            <stop stop-color="#00E3FF" offset="100%"></stop>
        </linearGradient>
        <linearGradient x1="107.99803%" y1="49.5345238%" x2="-130.395074%" y2="49.5345238%" id="linearGradient-2">
            <stop stop-color="#FFE000" offset="0%"></stop>
            <stop stop-color="#FFBD00" offset="40.87%"></stop>
            <stop stop-color="#FFA500" offset="77.54%"></stop>
            <stop stop-color="#FF9C00" offset="100%"></stop>
        </linearGradient>
        <linearGradient x1="86.4722892%" y1="17.637661%" x2="-50.6259036%" y2="195.596155%" id="linearGradient-3">
            <stop stop-color="#FF3A44" offset="0%"></stop>
            <stop stop-color="#C31162" offset="100%"></stop>
        </linearGradient>
        <linearGradient x1="-19.1283133%" y1="-53.6446899%" x2="42.0921687%" y2="24.9593465%" id="linearGradient-4">
            <stop stop-color="#32A071" offset="0%"></stop>
            <stop stop-color="#2DA771" offset="6.85%"></stop>
            <stop stop-color="#15CF74" offset="47.62%"></stop>
            <stop stop-color="#06E775" offset="80.09%"></stop>
            <stop stop-color="#00F076" offset="100%"></stop>
        </linearGradient>
    </defs>
    <g id="Page-1" stroke="none" stroke-width="1" fill="none" fill-rule="evenodd">
        <g id="Joya-desktop-–-Home-014" transform="translate(-747.000000, -1302.000000)">
            <g id="marco-polo" transform="translate(0.000000, 800.000000)">
                <g id="content" transform="translate(577.000000, 255.000000)">
                    <g id="badges" transform="translate(6.000000, 247.000000)">
                        <g id="google-play" transform="translate(164.000000, 0.000000)">
                            <rect id="bg-200x60" fill="#000000" x="0" y="0" width="144" height="43" rx="4.33082698"></rect>
                            <g transform="translate(43.308271, 18.633333)" id="Shape" fill="#FFFFFF">
                                <path d="M71.9642707,14.5125 L73.9846015,14.5125 L73.9846015,1.073925 L71.9642707,1.073925 L71.9642707,14.5125 Z M90.1613233,5.91465 L87.8443308,11.74115 L87.7750376,11.74115 L85.3725113,5.91465 L83.195188,5.91465 L86.7995188,14.057775 L84.7456241,18.587825 L86.8525714,18.587825 L92.4068571,5.91465 L90.1613233,5.91465 Z M78.7030376,12.986 C78.0415038,12.986 77.1179549,12.658125 77.1179549,11.84435 C77.1179549,10.80805 78.2677895,10.4103 79.2606316,10.4103 C80.1484511,10.4103 80.5663759,10.600575 81.1055639,10.85965 C80.9496541,12.1045 79.8691128,12.986 78.7030376,12.986 L78.7030376,12.986 Z M78.9466466,5.621175 C77.4839098,5.621175 75.969203,6.2608 75.3423158,7.678725 L77.1352782,8.42155 C77.5185564,7.678725 78.2331429,7.435775 78.9812932,7.435775 C80.0261053,7.435775 81.0882406,8.0582 81.1055639,9.16545 L81.1055639,9.30305 C80.739609,9.095575 79.956812,8.7849 78.9986165,8.7849 C77.065985,8.7849 75.0987068,9.839475 75.0987068,11.80995 C75.0987068,13.608425 76.6827068,14.767275 78.4594286,14.767275 C79.8171429,14.767275 80.5663759,14.16205 81.0362707,13.45255 L81.1055639,13.45255 L81.1055639,14.489925 L83.0566015,14.489925 L83.0566015,9.33745 C83.0566015,6.952025 81.2625564,5.621175 78.9466466,5.621175 L78.9466466,5.621175 Z M66.4608722,7.5508 L63.5884511,7.5508 L63.5884511,2.944425 L66.4608722,2.944425 C67.9712481,2.944425 68.8298346,4.18605 68.8298346,5.247075 C68.8298346,6.28875 67.9712481,7.5508 66.4608722,7.5508 L66.4608722,7.5508 Z M66.4089023,1.073925 L61.5681203,1.073925 L61.5681203,14.5125 L63.5884511,14.5125 L63.5884511,9.4213 L66.4089023,9.4213 C68.6479398,9.4213 70.8490827,7.81095 70.8490827,5.247075 C70.8490827,2.6832 68.6479398,1.073925 66.4089023,1.073925 L66.4089023,1.073925 Z M40.0114286,12.98815 C38.6158195,12.98815 37.4475789,11.828225 37.4475789,10.235075 C37.4475789,8.624725 38.6158195,7.446525 40.0114286,7.446525 C41.3897143,7.446525 42.4713383,8.624725 42.4713383,10.235075 C42.4713383,11.828225 41.3897143,12.98815 40.0114286,12.98815 L40.0114286,12.98815 Z M42.3316692,6.66715 L42.2612932,6.66715 C41.8076391,6.130725 40.9360602,5.6459 39.8371128,5.6459 C37.5341955,5.6459 35.424,7.654 35.424,10.235075 C35.424,12.797875 37.5341955,14.78985 39.8371128,14.78985 C40.9360602,14.78985 41.8076391,14.305025 42.2612932,13.750325 L42.3316692,13.750325 L42.3316692,14.4093 C42.3316692,16.158325 41.3897143,17.093575 39.8717594,17.093575 C38.6331429,17.093575 37.8655038,16.209925 37.5526015,15.46495 L35.7899549,16.192725 C36.2955789,17.405325 37.639218,18.8942 39.8717594,18.8942 C42.2439699,18.8942 44.2502256,17.508525 44.2502256,14.13195 L44.2502256,5.922175 L42.3316692,5.922175 L42.3316692,6.66715 Z M45.6458346,14.5125 L47.6694135,14.5125 L47.6694135,1.07285 L45.6458346,1.07285 L45.6458346,14.5125 Z M50.6522707,10.0792 C50.599218,8.312975 52.0294737,7.412125 53.0591278,7.412125 C53.8614135,7.412125 54.5413534,7.809875 54.7687218,8.381775 L50.6522707,10.0792 Z M56.9308872,8.55485 C56.547609,7.5336 55.3782857,5.6459 52.9887519,5.6459 C50.6165414,5.6459 48.646015,7.498125 48.646015,10.217875 C48.646015,12.780675 50.599218,14.78985 53.2161203,14.78985 C55.3263158,14.78985 56.547609,13.50845 57.0532331,12.763475 L55.4833083,11.72395 C54.9603609,12.486125 54.2446917,12.98815 53.2161203,12.98815 C52.1864662,12.98815 51.4534737,12.520525 50.9835789,11.60355 L57.1409323,9.074075 L56.9308872,8.55485 Z M7.87560902,7.048775 L7.87560902,8.988075 L12.5507368,8.988075 C12.4110677,10.0792 12.0440301,10.875775 11.4864361,11.4294 C10.8054135,12.105575 9.74219549,12.85055 7.87560902,12.85055 C4.99777444,12.85055 2.74790977,10.546825 2.74790977,7.689475 C2.74790977,4.83105 4.99777444,2.5284 7.87560902,2.5284 C9.42821053,2.5284 10.5618045,3.1347 11.3987368,3.914075 L12.7770226,2.5456 C11.608782,1.437275 10.0561805,0.588025 7.87560902,0.588025 C3.93347368,0.588025 0.619308271,3.7754 0.619308271,7.689475 C0.619308271,11.60355 3.93347368,14.78985 7.87560902,14.78985 C10.0031278,14.78985 11.608782,14.096475 12.8647218,12.797875 C14.1553083,11.516475 14.5559098,9.71585 14.5559098,8.2603 C14.5559098,7.809875 14.5212632,7.394925 14.4519699,7.048775 L7.87560902,7.048775 Z M19.8709173,12.98815 C18.4753083,12.98815 17.2713383,11.845425 17.2713383,10.217875 C17.2713383,8.57205 18.4753083,7.446525 19.8709173,7.446525 C21.2665263,7.446525 22.4694135,8.57205 22.4694135,10.217875 C22.4694135,11.845425 21.2665263,12.98815 19.8709173,12.98815 L19.8709173,12.98815 Z M19.8709173,5.6459 C17.324391,5.6459 15.2477594,7.568 15.2477594,10.217875 C15.2477594,12.85055 17.324391,14.78985 19.8709173,14.78985 C22.4174436,14.78985 24.4929925,12.85055 24.4929925,10.217875 C24.4929925,7.568 22.4174436,5.6459 19.8709173,5.6459 L19.8709173,5.6459 Z M29.9541654,12.98815 C28.5585564,12.98815 27.3556692,11.845425 27.3556692,10.217875 C27.3556692,8.57205 28.5585564,7.446525 29.9541654,7.446525 C31.3497744,7.446525 32.5526617,8.57205 32.5526617,10.217875 C32.5526617,11.845425 31.3497744,12.98815 29.9541654,12.98815 L29.9541654,12.98815 Z M29.9541654,5.6459 C27.4076391,5.6459 25.3320902,7.568 25.3320902,10.217875 C25.3320902,12.85055 27.4076391,14.78985 29.9541654,14.78985 C32.5006917,14.78985 34.5762406,12.85055 34.5762406,10.217875 C34.5762406,7.568 32.5006917,5.6459 29.9541654,5.6459 L29.9541654,5.6459 Z"></path>
                            </g>
                            <g id="get-it-on" transform="translate(43.920000, 7.883333)" fill="#FFFFFF">
                                <polygon id="Shape" points="41.7985176 0.148734684 41.7985176 4.15206489 41.8237649 5.08698761 38.7677544 0.148734684 37.5679629 0.148734684 37.5679629 7.01665037 38.631639 7.01665037 38.631639 2.76297356 38.6063917 1.82915857 41.8105924 7.01665037 42.8643891 7.01665037 42.8643891 0.148734684"></polygon>
                                <path d="M35.5156938,3.5828033 C35.5156938,4.3216581 35.2796872,4.93755506 34.8142603,5.41277052 C34.3510289,5.88687824 33.7758315,6.12725529 33.1040361,6.12725529 C32.4322407,6.12725529 31.8570433,5.88687824 31.3927141,5.41277052 C30.9283849,4.93755506 30.6923784,4.3216581 30.6923784,3.5828033 C30.6923784,2.8439485 30.9283849,2.22805155 31.3927141,1.75283609 C31.8570433,1.27872836 32.4322407,1.03945904 33.1040361,1.03945904 C33.7758315,1.03945904 34.3510289,1.27872836 34.8142603,1.75283609 C35.2796872,2.22805155 35.5156938,2.8439485 35.5156938,3.5828033 M33.1040361,0.000409859485 C32.1139062,0.000409859485 31.2763574,0.350452014 30.6111482,1.0416745 C29.9470367,1.73068152 29.6100413,2.58474007 29.6100413,3.5828033 C29.6100413,4.58086653 29.9470367,5.43603281 30.6111482,6.12393211 C31.2752597,6.81515459 32.1139062,7.16408902 33.1040361,7.16408902 C34.0930682,7.16408902 34.9328125,6.81515459 35.5969239,6.12393211 C36.2621331,5.43492508 36.5980308,4.57975881 36.5980308,3.5828033 C36.5980308,2.59138644 36.2610354,1.73843562 35.5925331,1.04499768 C34.9240308,0.351559742 34.086482,0.000409859485 33.1040361,0.000409859485" id="Shape"></path>
                                <polygon id="Shape" points="22.315353 1.18723 24.1551065 1.18723 24.1551065 7.01609651 25.2198803 7.01609651 25.2198803 1.18723 27.0596337 1.18723 27.0596337 0.149288548 22.315353 0.149288548"></polygon>
                                <polygon id="Shape" points="20.4019436 7.01609651 21.4678151 7.01609651 21.4678151 0.14818082 20.4019436 0.14818082"></polygon>
                                <polygon id="Shape" points="12.6011036 1.18723 14.440857 1.18723 14.440857 7.01609651 15.5067285 7.01609651 15.5067285 1.18723 17.346482 1.18723 17.346482 0.149288548 12.6011036 0.149288548"></polygon>
                                <polygon id="Shape" points="7.87372761 7.01631806 11.9385289 7.01631806 11.9385289 5.9783766 8.93959908 5.9783766 8.93959908 4.09302297 11.644344 4.09302297 11.644344 3.07280518 8.93959908 3.07280518 8.93959908 1.18745155 11.9385289 1.18745155 11.9385289 0.148402365 7.87372761 0.148402365"></polygon>
                                <path d="M6.81455213,3.23985061 L3.42154623,3.23985061 L3.42154623,4.26006841 L5.80137049,4.26006841 C5.73989902,4.7485766 5.56975475,5.13738925 5.29313311,5.41764452 C4.82551082,5.88842906 4.23275016,6.12659066 3.53131672,6.12659066 C2.87049836,6.12659066 2.29091016,5.88953679 1.8090177,5.41985998 C1.32712525,4.95129089 1.08343475,4.33317848 1.08343475,3.58324639 C1.08343475,2.83220658 1.32712525,2.21409417 1.8090177,1.74552508 C2.29091016,1.276956 2.87049836,1.0387944 3.53131672,1.0387944 C4.27007213,1.0387944 4.83209705,1.28360237 5.25032262,1.78761876 L5.32825967,1.88066794 L6.06152656,1.13848995 L5.99785967,1.06094897 C5.73111738,0.74081548 5.37107016,0.480499321 4.92649967,0.28775459 C4.4852223,0.0972253162 4.0165023,-0.000254777518 3.53131672,-0.000254777518 C2.55545705,-0.000254777518 1.71351738,0.346464192 1.03074492,1.02993258 C0.346874754,1.71340096 0,2.57189042 0,3.58324639 C0,4.59349464 0.346874754,5.4519841 1.03074492,6.13545248 C1.71351738,6.81781314 2.55435934,7.16453211 3.53131672,7.16453211 C4.55108459,7.16453211 5.39192656,6.82224405 6.02859541,6.14874522 C6.59281574,5.57826513 6.87931672,4.80617848 6.87931672,3.85242438 C6.87931672,3.68404967 6.86285115,3.50792087 6.8310177,3.33179206 L6.81455213,3.23985061 L6.81455213,3.23985061 Z" id="Shape"></path>
                            </g>
                            <g id="logo" transform="translate(9.744361, 8.958333)">
                                <path d="M0.501293233,0.4277425 C0.186225564,0.7577675 0,1.2716175 0,1.9381175 L0,1.9381175 L0,25.7117425 C0,26.3782425 0.186225564,26.8910175 0.501293233,27.2221175 L0.501293233,27.2221175 L0.580330827,27.2995175 L13.9950677,13.9824175 L13.9950677,13.8254675 L13.9950677,13.6674425 L0.580330827,0.3492675 L0.501293233,0.4277425 Z" id="Fill" fill="url(#linearGradient-1)"></path>
                                <path d="M13.9950677,13.6674425 L13.9950677,13.8254675 L13.9950677,13.9824175 L18.4655639,18.4232425 L18.5684211,18.3662675 L23.8650226,15.3766925 C25.3786466,14.5242175 25.3786466,13.1267175 23.8650226,12.2731675 L23.8650226,12.2731675 L18.5684211,9.2846675 L18.4666466,9.2276925 L13.9950677,13.6674425 Z" id="Fill" fill="url(#linearGradient-2)"></path>
                                <path d="M0.501293233,27.2221175 C0.999338346,27.7467175 1.8232782,27.8112175 2.75115789,27.2887675 L18.5684211,18.3662675 L13.9950677,13.8254675 L0.501293233,27.2221175 Z" id="Fill" fill="url(#linearGradient-3)"></path>
                                <path d="M0.501293233,0.4277425 L13.9950677,13.8254675 L18.5684211,9.2835925 L2.75115789,0.3610925 C2.31590977,0.1159925 1.9033985,-0.0001075 1.53744361,-0.0001075 L1.53744361,-0.0001075 C1.12276692,-0.0001075 0.765473684,0.1493175 0.501293233,0.4277425" id="Fill" fill="url(#linearGradient-4)"></path>
                            </g>
                        </g>
                    </g>
                </g>
            </g>
        </g>
    </g>
</svg>